<?xml version="1.0" encoding="utf-8"?>
<!-- Generator: Adobe Illustrator 17.0.0, SVG Export Plug-In . SVG Version: 6.00 Build 0)  -->
<!DOCTYPE svg PUBLIC "-//W3C//DTD SVG 1.1//EN" "http://www.w3.org/Graphics/SVG/1.1/DTD/svg11.dtd">
<svg version="1.1" id="Layer_1" xmlns="http://www.w3.org/2000/svg" xmlns:xlink="http://www.w3.org/1999/xlink" x="0px" y="0px"
	 width="67px" height="67px" viewBox="0 0 67 67" enable-background="new 0 0 67 67" xml:space="preserve">
<g>
	<circle fill="#FFFFFF" cx="33.4" cy="33.553" r="33.5"/>
	<path fill="#4BBFF1" d="M33.38,3.953c-16.383,0-29.973,13.281-29.973,29.663C3.407,48.027,15,60.026,27,62.708V42h-3v-8h3
		c0,0,0-4.663,0-8.436c0-5.689,4.599-10.908,13.079-10.908c3.425,0,6.429,0.318,6.429,0.318l0.027,7.923
		c0,0-1.876-0.024-4.695-0.024c-3.056,0-2.84,1.405-2.84,3.746c0,0.231,0,0.332,0,0.36C39,27.715,39,29,39,34h8.015l-0.402,8H39
		v20.715c15-2.664,23.996-14.674,23.996-29.099C62.996,17.233,49.764,3.953,33.38,3.953z"/>
</g>
</svg>
