<?xml version="1.0" encoding="utf-8"?>
<!-- Generator: Adobe Illustrator 17.0.0, SVG Export Plug-In . SVG Version: 6.00 Build 0)  -->
<!DOCTYPE svg PUBLIC "-//W3C//DTD SVG 1.1//EN" "http://www.w3.org/Graphics/SVG/1.1/DTD/svg11.dtd">
<svg version="1.1" id="Layer_1" xmlns="http://www.w3.org/2000/svg" xmlns:xlink="http://www.w3.org/1999/xlink" x="0px" y="0px"
	 width="65px" height="65px" viewBox="0 0 65 65" enable-background="new 0 0 65 65" xml:space="preserve">
<g>
	<path fill="#BDBBBC" d="M32.001,11.731c-0.915,0-1.001,0.721-1.001,2.168v6.582c0,1.447,0.086,2.172,1.001,2.172
		c0.914,0,0.999-0.725,0.999-2.172v-6.582C33,12.452,32.915,11.731,32.001,11.731z"/>
</g>
<path fill="#BDBBBC" d="M65,8.43C65,3.774,61.226,0,56.57,0H8.43C3.774,0,0,3.774,0,8.43v48.14C0,61.226,3.774,65,8.43,65h48.14
	c4.656,0,8.43-3.774,8.43-8.43V8.43z M38,21.739V9h3v11.886c0,0.666,0.247,1.012,0.281,1.104c0.062,0.439,0.416,0.664,0.797,0.664
	c0.566,0,0.922-0.439,1.922-1.328V9h3v16h-3v-1.694c-1,1.295-2.213,1.924-3.246,1.924c-0.913,0-2.425-0.371-2.709-1.164
	C37.889,23.593,38,22.843,38,21.739z M28,14.468c0-1.672,0.265-2.895,0.867-3.686c0.784-1.068,1.879-1.604,3.291-1.604
	c1.421,0,2.349,0.535,3.135,1.604C35.886,11.573,36,12.796,36,14.468v5.48c0,1.662-0.118,2.895-0.712,3.68
	c-0.785,1.066-1.803,1.602-3.224,1.602c-1.412,0-2.454-0.535-3.238-1.602C28.223,22.843,28,21.61,28,19.948V14.468z M20.378,4
	l2.232,8.244L24.754,4h3.179L24,16.511V25h-3v-8.489c0-1.508-0.909-3.724-1.917-6.652C18.42,7.912,17.733,6,17.071,4H20.378z
	 M55.19,54.974c-0.566,2.469-2.587,4.289-5.017,4.561c-5.757,0.643-11.583,0.646-17.383,0.643c-5.801,0.004-11.627,0-17.383-0.643
	c-2.431-0.271-4.448-2.092-5.016-4.561c-0.809-3.516-0.809-7.354-0.809-10.973c0-3.621,0.009-7.457,0.818-10.975
	c0.566-2.467,2.585-4.287,5.016-4.559C21.173,27.823,27,27.821,32.8,27.823c5.8-0.002,11.626,0,17.383,0.645
	c2.43,0.271,4.449,2.092,5.017,4.559c0.809,3.518,0.805,7.354,0.805,10.975C56.004,47.62,56,51.458,55.19,54.974z"/>
<path fill-rule="evenodd" clip-rule="evenodd" fill="#BDBBBC" d="M22.824,36.19v-2.926h-9.78v2.926h3.3v17.854h3.12V36.19H22.824z
	 M28.493,54.044v-1.689c-1.114,1.279-2.174,1.902-3.205,1.902c-0.904,0-1.527-0.367-1.808-1.152
	c-0.154-0.469-0.247-1.207-0.247-2.301V38.562h2.804V49.96c0,0.656,0,1,0.026,1.09c0.067,0.435,0.281,0.656,0.656,0.656
	c0.562,0,1.151-0.434,1.773-1.312V38.562H31.3v15.482H28.493z M39.152,49.618c0,1.398-0.411,2.088-1.221,2.088
	c-0.461,0-0.929-0.221-1.397-0.689v-9.438c0.469-0.461,0.937-0.682,1.397-0.682c0.81,0,1.221,0.717,1.221,2.113V49.618z
	 M41.957,49.397v-6.166c0-1.465-0.096-2.488-0.282-3.111c-0.375-1.16-1.125-1.748-2.243-1.748c-1.031,0-1.992,0.565-2.897,1.68
	v-6.787h-2.806v20.779h2.806v-1.502c0.937,1.16,1.9,1.715,2.897,1.715c1.118,0,1.868-0.588,2.243-1.74
	C41.861,51.86,41.957,50.829,41.957,49.397z M49.74,44.478h-2.805v-1.432c0-1.432,0.469-2.148,1.406-2.148
	c0.929,0,1.399,0.717,1.399,2.148V44.478z M52.544,49.091v-0.41h-2.863c0,1.125-0.035,1.748-0.061,1.9
	c-0.16,0.75-0.563,1.125-1.254,1.125c-0.963,0-1.432-0.715-1.432-2.148v-2.744h5.609v-3.207c0-1.654-0.281-2.863-0.868-3.646
	c-0.785-1.061-1.902-1.588-3.31-1.588c-1.432,0-2.55,0.527-3.359,1.588c-0.597,0.783-0.867,1.992-0.867,3.646v5.424
	c0,1.645,0.306,2.867,0.901,3.641c0.811,1.057,1.927,1.586,3.395,1.586c1.465,0,2.615-0.555,3.393-1.678
	c0.34-0.498,0.561-1.061,0.655-1.682C52.51,50.616,52.544,49.993,52.544,49.091z"/>
</svg>
