<?xml version="1.0" encoding="utf-8"?>
<!-- Generator: Adobe Illustrator 17.0.0, SVG Export Plug-In . SVG Version: 6.00 Build 0)  -->
<!DOCTYPE svg PUBLIC "-//W3C//DTD SVG 1.1//EN" "http://www.w3.org/Graphics/SVG/1.1/DTD/svg11.dtd">
<svg version="1.1" id="Layer_1" xmlns="http://www.w3.org/2000/svg" xmlns:xlink="http://www.w3.org/1999/xlink" x="0px" y="0px"
	 width="65px" height="65px" viewBox="0 0 65 65" enable-background="new 0 0 65 65" xml:space="preserve">
<path fill="#BDBBBC" enable-background="new    " d="M65,8.425C65,3.772,61.228,0,56.575,0H8.425C3.772,0,0,3.772,0,8.425v48.149
	C0,61.228,3.772,65,8.425,65h48.149C61.228,65,65,61.228,65,56.575V8.425z M51.886,22.296c0.02,0.401,0,0.731,0,1.136
	c0,12.319-8.972,27.254-26.119,27.254c-5.263,0-10.638-3.03-14.763-5.678c0.729,0.088,10.22,0,13.627-3.407
	c-4.075-0.074-7.051-2.577-8.239-6.281c0,0,2.491,0.603,3.626-0.533C15.756,33.931,12,30.535,12,26.02c0-0.04,0-0.078,0-0.117
	c2,0.696,3.082,0.888,4.613,0.937c-2.5-1.671-3.372-4.719-3.372-7.949c0-1.711,0.353-3.167,1.153-4.542
	c4.601,5.64,11.569,9.833,19.314,10.22c-0.156-0.681-0.309-1.599-0.309-2.33c0-5.148,4.193-9.32,9.34-9.32
	c2.679,0,5.113,1.132,6.813,2.944c2.127-0.414,3.47-0.378,5.741-2.649c0,2.271-1.993,4.39-3.913,5.543c0,0,3.376-0.255,5.049-1.001
	C55.175,19.625,53.711,20.984,51.886,22.296z"/>
</svg>
