<?xml version="1.0" encoding="utf-8"?>
<!-- Generator: Adobe Illustrator 17.0.0, SVG Export Plug-In . SVG Version: 6.00 Build 0)  -->
<!DOCTYPE svg PUBLIC "-//W3C//DTD SVG 1.1//EN" "http://www.w3.org/Graphics/SVG/1.1/DTD/svg11.dtd">
<svg version="1.1" id="Layer_1" xmlns="http://www.w3.org/2000/svg" xmlns:xlink="http://www.w3.org/1999/xlink" x="0px" y="0px"
	 width="67px" height="67px" viewBox="0 0 67 67" enable-background="new 0 0 67 67" xml:space="preserve">
<g>
	<circle fill="#FFFFFF" cx="33.443" cy="33.134" r="33.5"/>
	<path fill="#4BBFF1" d="M33.456,3.534c-16.383,0-29.663,13.281-29.663,29.663c0,16.381,13.28,29.661,29.663,29.661
		c16.383,0,29.661-13.28,29.661-29.661C63.117,16.814,49.839,3.534,33.456,3.534z M49.452,27.045
		c0.017,0.355,0.027,0.71,0.027,1.067c0,10.889-8.287,23.444-23.443,23.444c-4.652,0-8.984-1.363-12.63-3.704
		c0.644,0.077,1.302,0.114,1.968,0.114c3.86,0,7.414-1.313,10.231-3.525c-3.602-0.066-6.647-2.447-7.696-5.72
		c0.501,0.096,1.02,0.149,1.552,0.149c0.75,0,0.967-0.101,1.657-0.289C17.349,37.822,14,34.491,14,30.5c0-0.036,0-0.069,0-0.104
		c1,0.615,2.889,0.987,4.241,1.03c-2.209-1.477-3.412-4-3.412-6.855c0-1.513,0.537-2.929,1.244-4.145
		c4.067,4.985,10.201,8.265,17.047,8.608c-0.138-0.602-0.182-1.231-0.182-1.878c0-4.551,3.707-8.238,8.256-8.238
		c2.368,0,4.52,1,6.023,2.602c1.88-0.366,3.642-1.055,5.237-1.997c-0.616,1.922-1.924,3.536-3.622,4.555
		c1.665-0.198,3.256-0.64,4.735-1.299C52.459,24.433,51.065,25.885,49.452,27.045z"/>
</g>
</svg>
